<svg xmlns="http://www.w3.org/2000/svg" viewBox="0 0 1600 900" role="img" aria-labelledby="title desc">
<title id="title">BITwiki Semantic Memory</title><desc id="desc">A linked semantic lattice converts validated artifacts into durable, machine-readable, provenance-aware knowledge.</desc>
<defs><pattern id="g" width="34" height="34" patternUnits="userSpaceOnUse"><path d="M34 0H0V34" fill="none" stroke="#69645d" opacity=".15"/></pattern><linearGradient id="s"><stop stop-color="#7c2cff"/><stop offset=".35" stop-color="#137bff"/><stop offset=".65" stop-color="#00d1b2"/><stop offset="1" stop-color="#ff4b8a"/></linearGradient><style>.p{fill:#eee9df}.i{stroke:#161616;fill:none;stroke-width:4}.t{stroke:#4a4742;fill:none;stroke-width:2}.b{fill:#f8f4ec;stroke:#161616;stroke-width:3}.x{font-family:Arial,sans-serif;fill:#111}.h{font-size:58px;font-weight:700}.n{font-size:23px;font-weight:700}.m{font-size:18px}.a{stroke:url(#s);stroke-width:9;fill:none}</style></defs>
<rect width="1600" height="900" class="p"/><rect width="1600" height="900" fill="url(#g)"/><rect x="25" y="25" width="1550" height="850" class="t"/>
<text x="70" y="100" class="x h">BITwiki</text><text x="70" y="145" class="x" font-size="26">Long-term knowledge codex — persistent semantic memory</text>
<g transform="translate(520 190)"><path d="M0 90Q260 0 520 90v440Q260 440 0 530z" class="b"/><path d="M520 90Q780 0 1040 90v440Q780 440 520 530z" class="b"/><path d="M520 90v440" class="i"/><path d="M70 160q190-55 380 0M70 220q190-55 380 0M70 280q190-55 380 0M590 160q190-55 380 0M590 220q190-55 380 0M590 280q190-55 380 0" class="t"/></g>
<g class="a"><path d="M270 300C430 250 540 300 650 410"/><path d="M270 450C430 470 530 450 650 430"/><path d="M270 600C440 620 545 540 670 455"/><path d="M930 420C1080 300 1180 270 1340 300"/><path d="M930 450C1090 450 1180 450 1340 450"/><path d="M930 480C1080 570 1180 620 1340 600"/></g>
<g transform="translate(90 235)"><rect width="260" height="120" class="b"/><text x="20" y="38" class="x n">Artifacts</text><text x="20" y="72" class="x m">Reports · prompts · schemas</text><text x="20" y="100" class="x m">Decisions · procedures · data</text></g>
<g transform="translate(90 390)"><rect width="260" height="120" class="b"/><text x="20" y="38" class="x n">Validation</text><text x="20" y="72" class="x m">Evidence · confidence · review</text><text x="20" y="100" class="x m">Scope · provenance · version</text></g>
<g transform="translate(90 545)"><rect width="260" height="120" class="b"/><text x="20" y="38" class="x n">Structure</text><text x="20" y="72" class="x m">Entities · relations · ontology</text><text x="20" y="100" class="x m">State · history · identity</text></g>
<g transform="translate(1250 235)"><rect width="260" height="120" class="b"/><text x="20" y="38" class="x n">Human reuse</text><text x="20" y="72" class="x m">Discovery · learning · decisions</text><text x="20" y="100" class="x m">Governance · collaboration</text></g>
<g transform="translate(1250 390)"><rect width="260" height="120" class="b"/><text x="20" y="38" class="x n">Agent reuse</text><text x="20" y="72" class="x m">Context · planning · reasoning</text><text x="20" y="100" class="x m">Tool selection · execution</text></g>
<g transform="translate(1250 545)"><rect width="260" height="120" class="b"/><text x="20" y="38" class="x n">Compounding</text><text x="20" y="72" class="x m">New work extends prior work</text><text x="20" y="100" class="x m">without discarding provenance</text></g>
<g transform="translate(665 335)"><circle cx="135" cy="115" r="120" class="b"/><circle cx="135" cy="115" r="76" class="i"/><circle cx="135" cy="115" r="18" fill="#7c2cff"/><circle cx="75" cy="75" r="14" class="i"/><circle cx="195" cy="75" r="14" class="i"/><circle cx="75" cy="155" r="14" class="i"/><circle cx="195" cy="155" r="14" class="i"/><path d="M88 84l34 22M182 84l-34 22M88 148l34-22M182 148l-34-22" class="t"/><text x="135" y="275" text-anchor="middle" class="x n">canonical semantic core</text></g>
<text x="800" y="835" text-anchor="middle" class="x n">Stable knowledge is linked, provenance-aware, machine-readable, and reusable.</text>
</svg>