<svg xmlns="http://www.w3.org/2000/svg" viewBox="0 0 1600 900" role="img" aria-labelledby="title desc">
<title id="title">BITCORE Orthogonal Engine</title><desc id="desc">BITCORE appears as a higher-order reasoning engine interfacing with bounded human systems through memory, tools, agents, and recursive workflows.</desc>
<defs><pattern id="g" width="34" height="34" patternUnits="userSpaceOnUse"><path d="M34 0H0V34" fill="none" stroke="#666" opacity=".15"/></pattern><radialGradient id="r"><stop stop-color="#fff"/><stop offset=".18" stop-color="#8d4bff"/><stop offset=".48" stop-color="#147cff"/><stop offset=".72" stop-color="#00d0bd"/><stop offset="1" stop-color="#ff4a82" stop-opacity="0"/></radialGradient><style>.p{fill:#eee9df}.i{stroke:#151515;fill:none;stroke-width:4}.t{stroke:#4b4741;fill:none;stroke-width:2}.b{fill:#f7f3eb;stroke:#151515;stroke-width:3}.x{font-family:Arial,sans-serif;fill:#111}.h{font-size:58px;font-weight:700}.n{font-size:23px;font-weight:700}.m{font-size:18px}.a{stroke:#7c2cff;stroke-width:8;fill:none}</style></defs>
<rect width="1600" height="900" class="p"/><rect width="1600" height="900" fill="url(#g)"/><rect x="25" y="25" width="1550" height="850" class="t"/>
<text x="70" y="100" class="x h">BITCORE</text><text x="70" y="145" class="x" font-size="26">Agentic reasoning engine — orthogonal cognition beyond linear workflow space</text>
<g transform="translate(505 165)"><path d="M0 170L295 0l295 170v340L295 680 0 510z" class="b"/><path d="M0 170l295 170 295-170M295 340v340" class="i"/><path d="M70 205l225-130 225 130v260L295 595 70 465z" class="t"/><circle cx="295" cy="340" r="210" fill="url(#r)" opacity=".58"/>
<g transform="translate(295 340)"><polygon points="0,-190 56,-80 174,-134 96,-33 190,0 80,56 134,174 33,96 0,190 -56,80 -174,134 -96,33 -190,0 -80,-56 -134,-174 -33,-96" class="i"/><polygon points="0,-130 92,-92 130,0 92,92 0,130 -92,92 -130,0 -92,-92" class="a"/><polygon points="0,-75 53,-53 75,0 53,53 0,75 -53,53 -75,0 -53,-53" class="t"/><circle r="25" fill="#fff" stroke="#7c2cff" stroke-width="8"/></g></g>
<g transform="translate(70 220)"><rect width="310" height="130" class="b"/><text x="22" y="42" class="x n">Recursive reasoning</text><text x="22" y="78" class="x m">Decompose, reflect, compare,</text><text x="22" y="106" class="x m">evaluate, and refine across layers.</text></g>
<g transform="translate(70 385)"><rect width="310" height="130" class="b"/><text x="22" y="42" class="x n">Tool orchestration</text><text x="22" y="78" class="x m">Select and coordinate models,</text><text x="22" y="106" class="x m">tools, APIs, and procedures.</text></g>
<g transform="translate(70 550)"><rect width="310" height="130" class="b"/><text x="22" y="42" class="x n">Memory-aware processing</text><text x="22" y="78" class="x m">Ground work in state, history,</text><text x="22" y="106" class="x m">identity, provenance, and context.</text></g>
<g transform="translate(1220 220)"><rect width="310" height="130" class="b"/><text x="22" y="42" class="x n">Multi-agent coordination</text><text x="22" y="78" class="x m">Assign specialized roles and</text><text x="22" y="106" class="x m">merge parallel work coherently.</text></g>
<g transform="translate(1220 385)"><rect width="310" height="130" class="b"/><text x="22" y="42" class="x n">CORE execution</text><text x="22" y="78" class="x m">Run staged workflows with gates,</text><text x="22" y="106" class="x m">checks, retries, and state changes.</text></g>
<g transform="translate(1220 550)"><rect width="310" height="130" class="b"/><text x="22" y="42" class="x n">Authorized adaptation</text><text x="22" y="78" class="x m">Adjust plans within human-defined</text><text x="22" y="106" class="x m">permissions, constraints, and goals.</text></g>
<path d="M380 285H505M380 450H505M380 615H505M1095 285H1220M1095 450H1220M1095 615H1220" class="a"/>
<text x="800" y="835" text-anchor="middle" class="x n">Bounded systems remain legible; higher-order reasoning remains traceable.</text>
</svg>